<?xml version="1.0" standalone="no"?>
<!DOCTYPE svg PUBLIC "-//W3C//DTD SVG 20010904//EN"
 "http://www.w3.org/TR/2001/REC-SVG-20010904/DTD/svg10.dtd">
<svg version="1.0" xmlns="http://www.w3.org/2000/svg"
 width="1280.000000pt" height="640.000000pt" viewBox="0 0 1280.000000 640.000000"
 preserveAspectRatio="xMidYMid meet">
<metadata>
Created by potrace 1.15, written by Peter Selinger 2001-2017
</metadata>
<g transform="translate(0.000000,640.000000) scale(0.100000,-0.100000)"
fill="#000000" stroke="none">
<path d="M7305 6315 c-153 -35 -267 -90 -413 -200 -244 -182 -499 -484 -738
-872 -47 -76 -88 -138 -92 -138 -4 1 -38 11 -77 24 -58 19 -90 23 -190 23 -66
-1 -157 -7 -202 -15 l-82 -14 -3 25 c-4 29 -28 48 -52 39 -14 -6 -16 -52 -16
-494 l0 -488 -293 -405 -293 -405 -49 -13 c-72 -19 -269 -10 -367 16 -166 45
-375 155 -546 289 -47 36 -180 159 -296 272 -116 113 -256 242 -311 286 -534
429 -1035 525 -1489 287 l-76 -39 0 24 c0 34 -42 73 -80 73 -38 0 -80 -39 -80
-75 0 -27 39 -75 62 -75 7 -1 2 -10 -12 -21 l-25 -21 -13 31 c-7 17 -25 37
-40 43 -15 7 -29 14 -31 15 -3 2 24 34 60 71 146 152 144 149 131 177 -9 20
-19 25 -50 25 -36 0 -213 -54 -260 -79 -19 -10 -22 -7 -36 42 -8 28 -25 93
-37 142 -12 50 -25 93 -28 98 -4 4 -17 -3 -30 -14 -24 -23 -25 -44 -5 -156 6
-31 4 -33 -23 -33 -16 0 -34 -5 -41 -12 -16 -16 -15 -51 0 -67 11 -10 -1 -11
-62 -5 -124 13 -135 12 -138 -13 -4 -27 2 -30 148 -74 58 -18 109 -35 113 -39
5 -4 -5 -23 -21 -41 -26 -30 -36 -34 -85 -35 -42 -1 -54 1 -50 11 10 27 -16
55 -52 55 -58 0 -69 -54 -17 -92 9 -7 18 -28 19 -46 0 -18 8 -41 17 -51 9 -10
16 -19 16 -22 0 -2 -27 -4 -60 -4 -50 0 -60 3 -60 17 0 24 -44 51 -70 43 -46
-15 -42 -78 8 -100 15 -6 22 -18 22 -36 0 -15 7 -32 15 -39 22 -18 19 -29 -25
-81 -22 -26 -40 -49 -40 -51 0 -2 38 -24 85 -48 77 -41 85 -44 100 -29 15 15
19 14 45 -12 17 -17 39 -29 54 -29 14 0 26 -2 26 -5 0 -2 -29 -48 -65 -101
-36 -53 -65 -102 -65 -108 -1 -6 -7 3 -15 21 -17 40 -57 67 -91 60 -16 -3 -23
0 -20 7 2 6 15 35 27 64 18 40 21 57 13 70 -15 24 -47 26 -84 7 -44 -23 -197
-142 -215 -168 -16 -23 -108 -52 -113 -36 -8 21 -35 39 -57 39 -25 0 -55 -24
-55 -44 0 -17 38 -56 55 -56 8 0 15 -7 15 -16 0 -9 15 -31 32 -48 l33 -33 -57
-20 c-55 -19 -58 -19 -63 -2 -12 36 -75 36 -95 -1 -13 -25 23 -70 56 -70 15 0
24 -6 24 -16 0 -8 15 -29 34 -47 32 -31 33 -34 22 -66 l-12 -35 -89 127 c-50
70 -92 127 -96 127 -3 0 -12 -12 -20 -26 -13 -24 -11 -32 28 -103 l42 -77 -32
-10 c-41 -12 -50 -54 -17 -77 24 -17 20 -22 -32 -31 -20 -4 -60 -13 -88 -22
-43 -13 -51 -18 -48 -37 3 -22 5 -22 145 -19 79 2 143 1 143 -2 0 -2 -9 -26
-20 -52 -12 -26 -19 -53 -16 -59 5 -13 170 -40 185 -30 6 3 11 13 11 21 0 13
3 13 22 0 12 -9 42 -16 65 -16 l44 0 -15 -27 c-8 -16 -50 -125 -94 -243 -235
-633 -431 -1404 -558 -2195 -38 -242 -39 -275 -4 -397 l11 -38 4289 0 4290 0
0 -50 0 -50 1995 0 1995 0 0 225 0 225 -215 0 -215 0 0 299 c0 329 -4 311 64
311 51 0 75 -41 41 -70 -19 -16 -19 -64 -1 -79 8 -7 32 -11 53 -9 42 3 46 -1
99 -103 19 -36 26 -63 25 -104 0 -45 4 -57 22 -70 27 -19 56 -19 63 -1 7 18
-27 147 -63 239 l-26 67 20 23 c47 51 54 95 26 155 -21 44 -77 101 -113 113
l-27 10 31 32 c17 18 42 63 54 100 24 65 24 66 47 51 19 -12 30 -13 69 -2 37
10 51 10 66 0 27 -17 44 -15 71 7 20 16 21 21 10 48 -7 17 -27 41 -44 53 -18
13 -53 42 -78 63 -44 37 -46 43 -42 79 7 45 1 47 -38 13 -16 -13 -46 -27 -67
-30 -84 -13 -110 -25 -156 -75 -52 -56 -58 -85 -21 -102 29 -13 21 -29 -26
-54 -63 -32 -59 -54 -57 394 l3 407 303 0 c166 0 302 2 302 5 -1 3 -495 359
-1098 791 l-1097 786 0 272 0 272 80 35 c106 48 255 93 332 101 74 7 118 -8
138 -46 12 -24 10 -34 -20 -107 -18 -44 -36 -98 -40 -120 l-6 -39 62 65 c87
92 124 172 124 270 0 94 -23 145 -83 178 -35 20 -55 23 -138 23 -109 0 -217
-24 -357 -77 -49 -19 -91 -34 -93 -34 -2 0 -4 8 -4 18 0 13 -9 17 -43 17 l-42
0 -3 -430 -3 -430 -341 -250 c-188 -137 -347 -251 -353 -253 -14 -3 -113 116
-184 222 -72 108 -114 183 -150 271 -135 326 -343 767 -485 1027 -437 799
-872 1290 -1274 1438 -78 29 -100 33 -217 36 -86 2 -150 -1 -190 -11z m397
-45 c152 -55 306 -159 467 -314 420 -406 829 -1079 1236 -2035 108 -255 186
-387 323 -549 30 -35 52 -64 50 -65 -1 -1 -22 -17 -45 -34 l-41 -33 -44 49
c-24 26 -61 73 -83 104 -22 31 -43 56 -47 57 -5 0 -8 -56 -8 -125 l0 -124 58
-3 57 -3 -110 -82 c-104 -77 -110 -80 -113 -57 -3 24 -4 24 -128 24 l-124 0 0
-118 0 -118 -85 -62 -86 -62 -94 0 -95 0 0 -70 0 -69 -52 -40 -53 -40 -3 109
-3 110 -144 0 -145 0 0 -120 0 -120 132 0 132 0 -82 -60 c-74 -55 -86 -60
-132 -60 l-50 0 0 -120 0 -120 145 0 145 0 0 85 0 85 55 0 55 0 0 -85 0 -85
125 0 125 0 0 85 0 85 55 0 55 0 0 -85 0 -85 105 0 105 0 0 -60 0 -60 -105 0
-105 0 0 -120 0 -120 105 0 105 0 0 -60 0 -60 -105 0 -105 0 0 -94 c0 -93 0
-95 -31 -120 -17 -14 -41 -26 -55 -26 l-24 0 0 120 0 120 -125 0 -125 0 0
-120 0 -120 62 0 61 0 -22 -24 c-13 -14 -26 -40 -30 -58 -6 -28 -11 -33 -36
-33 l-30 -1 -3 -122 -3 -122 55 0 c42 0 58 -4 65 -17 10 -17 12 -17 25 0 7 9
18 17 25 17 15 0 31 -42 31 -80 l0 -29 -97 -3 -98 -3 -3 -122 -3 -123 126 0
125 0 0 119 c0 84 -4 121 -12 123 -13 5 27 78 43 78 5 0 18 -19 29 -43 18 -36
20 -53 14 -119 -6 -70 -5 -78 15 -94 11 -10 21 -29 21 -41 0 -22 2 -23 105
-23 l105 0 0 -55 0 -54 -102 -3 c-98 -3 -103 -4 -106 -25 -3 -21 -9 -23 -58
-23 -51 0 -54 1 -54 25 l0 26 -122 -3 c-119 -3 -123 -4 -126 -25 -3 -21 -9
-23 -58 -23 -51 0 -54 1 -54 25 l0 25 -145 0 -145 0 0 -130 0 -130 115 0 115
0 0 -55 0 -55 -1752 2 -1753 2 1173 9 1172 9 0 44 0 44 50 0 50 0 0 130 0 130
-50 0 -50 0 0 55 0 55 50 0 50 0 0 126 0 126 -50 -4 -50 -3 0 58 0 57 50 0 50
0 0 124 0 123 -50 -5 -50 -5 0 62 0 61 50 0 50 0 0 120 0 120 -50 0 -50 0 0
60 0 60 50 0 50 0 0 120 0 120 -63 0 -63 0 -47 54 c-26 30 -47 57 -47 60 0 3
50 6 110 6 l110 0 0 120 0 120 -126 0 -125 0 3 -105 c2 -58 0 -104 -4 -103 -4
2 -30 30 -58 63 -43 51 -50 65 -50 102 l0 43 -38 0 c-34 0 -44 6 -85 54 -26
30 -47 57 -47 60 0 3 38 6 85 6 l85 0 0 120 0 120 -122 0 -123 0 2 -82 2 -83
-55 60 c-29 33 -57 70 -60 83 -3 12 -11 22 -18 22 -11 0 -106 103 -106 114 0
3 27 6 60 6 l60 0 0 120 0 120 -119 0 -120 0 -3 -52 -3 -51 -93 109 -93 109
35 3 36 3 0 120 0 119 -119 0 c-116 0 -120 -1 -123 -22 -3 -19 -13 -10 -71 57
-37 44 -63 81 -58 83 7 2 11 48 11 123 l0 119 -117 1 -118 0 -60 71 -60 72 -5
83 c-3 46 -9 84 -15 86 -5 1 -19 -15 -30 -36 -11 -20 -23 -37 -27 -37 -4 0
-23 19 -42 43 l-35 43 75 170 c116 259 293 614 307 614 18 0 77 -38 83 -54 3
-8 -16 -52 -41 -100 -60 -111 -58 -121 23 -121 l62 0 0 92 0 92 60 -41 c60
-42 60 -42 60 -92 l0 -51 120 0 120 0 0 38 c0 27 4 37 15 37 9 0 33 9 55 20
22 11 42 20 45 20 4 0 5 -25 4 -56 l-3 -55 122 -2 122 -2 0 88 0 88 58 -3 57
-3 1 -83 2 -83 121 -2 121 -2 0 123 0 122 -126 0 c-108 0 -125 -2 -120 -15 7
-19 7 -19 -67 7 -73 25 -231 30 -312 10 -79 -20 -209 -2 -288 40 -55 30 -197
150 -197 167 0 14 167 276 255 401 234 334 518 611 735 720 151 75 265 101
425 95 93 -3 124 -8 197 -35z m-1744 -1345 c2 -2 -49 -108 -112 -236 -63 -129
-144 -301 -181 -383 -36 -83 -67 -152 -69 -154 -2 -2 -22 16 -45 40 l-40 43
-1 292 0 293 93 44 c50 24 117 49 147 55 30 6 64 13 75 15 19 4 127 -4 133 -9z
m1220 -167 l3 -98 -101 0 -100 0 0 70 0 70 43 -20 42 -21 -42 38 c-65 58 -59
64 55 61 l97 -3 3 -97z m-1078 -18 l0 -80 -46 0 -45 0 42 80 c24 44 44 80 46
80 2 0 3 -36 3 -80z m720 -5 l0 -75 -100 0 -100 0 0 50 c0 56 1 57 105 85 95
26 95 26 95 -60z m-510 -20 c23 -8 67 -15 96 -15 47 0 54 -2 54 -20 0 -19 -7
-20 -100 -20 l-100 0 0 35 c0 19 2 35 4 35 2 0 23 -7 46 -15z m-3754 -109
c336 -82 618 -265 1029 -666 110 -107 225 -216 255 -242 156 -131 389 -261
565 -315 82 -25 104 -27 256 -28 l165 0 -99 -137 -99 -138 -95 0 -94 0 2 -128
1 -128 -58 -83 c-57 -79 -59 -81 -62 -52 l-3 31 -120 0 -119 0 0 -120 0 -119
55 -3 55 -3 -41 -57 c-22 -32 -46 -58 -54 -58 -7 0 -15 -12 -19 -27 -3 -16
-12 -37 -21 -47 -14 -18 -15 -18 -51 9 -20 15 -39 36 -42 47 -2 10 -13 18 -26
18 -11 0 -57 27 -100 60 l-79 60 101 0 102 0 0 120 0 120 -120 0 -119 0 -3
-105 -3 -105 -57 45 -58 45 0 60 0 60 -120 0 -120 0 0 -53 c0 -52 -1 -54 -54
-100 -30 -26 -57 -47 -60 -47 -3 0 -6 45 -6 100 l0 100 -120 0 -120 0 0 -120
0 -119 101 -3 100 -3 -66 -57 c-53 -46 -74 -58 -101 -58 -31 0 -34 -3 -34 -29
0 -23 -12 -40 -57 -81 l-58 -51 -3 81 -3 80 -119 0 -120 0 0 -120 0 -119 75
-3 76 -3 -66 -55 c-36 -30 -93 -81 -127 -112 -35 -32 -66 -58 -70 -58 -5 0 -8
25 -8 55 l0 55 -120 0 -120 0 0 -119 0 -120 49 -3 49 -3 -80 -70 c-44 -38 -94
-81 -110 -94 l-31 -24 5 36 4 37 -123 0 -123 0 0 -120 0 -120 25 0 c24 0 24
-1 -11 -32 l-35 -33 10 -505 c6 -278 11 -533 11 -567 l0 -63 -935 0 c-514 0
-935 3 -935 8 0 4 -7 40 -15 80 -15 70 -14 78 16 270 198 1262 562 2431 969
3116 336 565 693 872 1107 951 111 21 298 13 429 -19z m-1119 -244 c15 -16 35
-31 43 -35 13 -5 12 -8 -4 -21 -18 -15 -21 -14 -34 14 -8 16 -23 32 -33 35
-20 7 -24 17 -12 28 9 10 8 10 40 -21z m-115 -127 c16 -14 37 -25 45 -25 14 0
13 -3 -3 -21 l-18 -20 -8 20 c-4 12 -21 29 -38 39 -16 10 -27 22 -23 25 10 10
13 9 45 -18z m-128 -110 c3 -9 22 -23 41 -31 l36 -15 -23 -28 -23 -28 -6 29
c-8 34 -26 58 -45 58 -15 0 -19 12 -7 23 11 11 20 8 27 -8z m4546 -102 c0 -44
-1 -46 -16 -31 -15 14 -15 21 -4 47 7 17 14 31 16 31 2 0 4 -21 4 -47z m360
-344 c0 -79 -3 -100 -13 -97 -11 2 -64 60 -165 181 -14 16 -9 17 81 17 l97 0
0 -101z m-5145 -3 c19 -1 34 -3 32 -6 -1 -3 -9 -17 -16 -32 -17 -34 -27 -35
-35 -5 -6 25 -43 47 -77 47 -17 0 -18 3 -9 20 11 20 11 20 40 -2 16 -12 45
-22 65 -22z m-83 -146 c21 0 38 -2 38 -4 0 -3 -10 -22 -22 -43 -21 -34 -23
-36 -26 -16 -4 24 -46 63 -68 63 -8 0 -14 4 -14 8 0 18 14 21 34 7 11 -8 37
-15 58 -15z m5588 -210 l0 -100 -37 0 c-35 1 -44 7 -100 73 -43 50 -63 80 -63
100 l0 27 100 0 100 0 0 -100z m-5687 59 c16 -4 35 -5 43 -2 17 6 17 3 1 -36
l-13 -31 -14 24 c-13 24 -63 50 -74 39 -3 -4 -6 2 -6 11 0 13 5 16 18 11 9 -4
30 -11 45 -16z m8791 -24 c9 -13 36 -47 61 -75 25 -28 45 -53 45 -55 0 -3 -29
-5 -64 -5 l-64 0 -4 80 c-2 44 0 80 3 80 4 0 14 -11 23 -25z m-8891 -117 c12
-6 36 -14 54 -17 l31 -6 -14 -35 -15 -35 -14 31 c-13 32 -32 44 -66 44 -12 0
-16 5 -13 15 7 18 9 18 37 3z m3887 -250 c-27 -40 -61 -86 -75 -103 l-24 -30
-1 103 0 102 76 0 75 0 -51 -72z m2260 -28 l0 -100 -63 0 c-62 0 -63 1 -100
44 -33 40 -37 51 -37 100 l0 56 100 0 100 0 0 -100z m2550 73 c-1 -29 -3 -31
-137 -127 l-53 -38 0 96 0 96 95 0 95 0 0 -27z m-6150 -433 l0 -100 -100 0
-100 0 0 100 0 100 100 0 100 0 0 -100z m214 79 c-10 -11 -27 -25 -36 -30 -15
-8 -18 -5 -18 21 0 28 3 30 37 30 36 0 36 0 17 -21z m146 -19 c0 -22 -3 -40
-6 -40 -5 0 -70 48 -98 72 -6 4 16 8 47 8 l57 0 0 -40z m360 -60 l0 -100 -100
0 -100 0 0 100 0 100 100 0 100 0 0 -100z m360 64 c0 -27 -12 -53 -46 -100
l-45 -64 -55 0 -54 0 0 100 0 100 100 0 100 0 0 -36z m2880 -64 l0 -100 -88 0
c-55 0 -92 4 -100 12 -8 8 -12 45 -12 100 l0 88 100 0 100 0 0 -100z m1478 3
l-3 -98 -122 -3 -123 -3 0 101 0 100 125 0 126 0 -3 -97z m291 94 c-2 -2 -32
-24 -66 -50 l-63 -47 0 50 0 50 67 0 c36 0 64 -1 62 -3z m-6097 -444 c-4 -107
-9 -112 -114 -113 l-78 0 0 100 0 100 98 0 97 0 -3 -87z m188 83 c0 -3 -4 -8
-10 -11 -5 -3 -10 -1 -10 4 0 6 5 11 10 11 6 0 10 -2 10 -4z m4140 -16 c0 -11
-2 -20 -5 -20 -2 0 -9 9 -15 20 -9 16 -8 20 5 20 8 0 15 -9 15 -20z m360 -80
l0 -100 -100 0 -100 0 0 100 0 100 100 0 100 0 0 -100z m919 97 c-2 -1 -14
-11 -26 -21 -23 -19 -23 -19 -23 2 0 17 6 22 27 22 14 0 24 -1 22 -3z m196
-122 l0 -70 -122 -3 -123 -3 0 69 c0 38 3 72 7 76 4 3 59 5 122 4 l116 -3 0
-70z m360 0 l0 -70 -97 -3 -98 -3 0 76 0 76 98 -3 97 -3 0 -70z m343 -2 l3
-73 -91 0 -90 0 0 75 0 76 88 -3 87 -3 3 -72z m152 -8 l0 -85 125 0 125 0 0
85 0 85 55 0 55 0 0 -85 0 -85 85 0 85 0 0 -60 0 -60 -85 0 -85 0 0 -120 0
-120 85 0 85 0 0 -60 0 -60 -72 0 c-63 1 -77 4 -100 25 -22 19 -28 33 -28 65
0 45 -8 50 -35 20 -18 -20 -58 -34 -128 -45 -21 -3 -52 -19 -71 -35 -22 -20
-45 -30 -65 -30 l-31 0 0 -85 c0 -84 0 -85 -25 -85 l-25 0 0 410 0 410 25 0
c25 0 25 -1 25 -85z m220 10 l0 -75 -95 0 -95 0 0 75 0 75 95 0 95 0 0 -75z
m308 -2 l3 -73 -70 0 -69 0 -4 71 c-2 39 -1 73 2 75 2 3 34 4 70 2 l65 -3 3
-72z m2042 -323 c0 -220 -3 -400 -7 -400 -5 1 -28 5 -53 10 -64 13 -111 -3
-170 -55 -56 -50 -57 -50 -127 -34 -42 10 -55 9 -84 -5 -44 -21 -71 -65 -71
-119 0 -53 29 -220 44 -252 14 -31 21 -31 41 -2 l15 22 16 -37 c19 -44 20 -62
5 -90 -20 -38 23 -16 52 27 15 22 33 40 39 40 6 0 21 -22 33 -49 18 -43 19
-54 9 -103 -14 -66 -3 -100 34 -109 43 -11 56 16 51 106 -2 41 -7 86 -12 100
-6 20 0 17 30 -18 44 -51 69 -65 96 -57 17 6 20 12 15 38 -9 44 -35 68 -116
107 -38 19 -70 36 -70 39 1 15 121 131 135 131 9 0 34 -12 56 -28 l39 -27 0
-302 0 -303 -360 0 -360 0 0 200 c0 168 2 199 14 194 8 -3 19 3 26 16 9 16 6
37 -14 103 -24 80 -25 90 -25 414 l0 331 46 16 c59 20 87 20 118 0 62 -41 143
48 83 91 -13 9 -64 45 -114 81 l-92 64 6 47 5 47 -26 -17 -27 -17 0 100 0 100
360 0 360 0 0 -400z m-9580 31 c0 -58 -1 -60 -47 -100 -43 -37 -54 -41 -100
-41 l-53 0 0 100 0 100 100 0 100 0 0 -59z m5040 -41 l0 -100 -39 0 -40 0 -3
100 -3 100 43 0 42 0 0 -100z m1820 0 l0 -100 -90 0 -90 0 0 100 0 100 90 0
90 0 0 -100z m680 0 l0 -101 -71 3 -71 3 -1 98 -2 97 73 0 72 0 0 -100z
m-7900 -297 c-1 -35 -7 -44 -73 -100 -50 -43 -80 -63 -99 -63 l-28 0 0 100 0
100 100 0 100 0 0 -37z m5398 -60 l-3 -98 -37 -3 -38 -3 0 100 0 101 40 0 41
0 -3 -97z m1480 0 l-3 -98 -97 -3 -98 -3 0 101 0 100 100 0 101 0 -3 -97z
m342 32 c0 -64 0 -65 -25 -60 -14 3 -36 7 -50 10 -13 3 -42 -1 -65 -9 l-40
-14 0 69 0 69 90 0 90 0 0 -65z m190 61 c0 -3 -4 -8 -10 -11 -5 -3 -10 -1 -10
4 0 6 5 11 10 11 6 0 10 -2 10 -4z m490 -96 l0 -101 -72 3 -71 3 -1 33 c-1 31
16 44 29 22 10 -15 46 -12 67 7 32 29 19 63 -43 109 l-33 24 62 0 62 0 0 -100z
m-475 14 c14 -6 14 -8 -1 -25 -23 -25 -29 -24 -29 6 0 26 4 29 30 19z m215
-43 c0 -16 36 -22 64 -12 26 10 26 10 26 -34 l0 -45 85 0 86 0 -3 -57 -3 -58
-80 -1 -80 -2 -3 -121 -3 -121 86 0 85 0 0 -55 0 -54 -82 -3 -83 -3 -3 -122
-3 -123 86 0 85 0 0 -55 0 -54 -82 -3 c-77 -3 -83 -5 -86 -26 -3 -20 -9 -22
-57 -22 -48 0 -54 2 -57 22 -3 22 -6 23 -123 23 -117 0 -120 -1 -123 -22 -3
-17 -10 -23 -28 -23 l-24 0 0 300 c0 176 4 300 9 300 5 0 16 3 25 6 13 5 16
-2 16 -40 0 -42 2 -46 25 -46 20 0 25 -5 25 -24 0 -34 23 -48 71 -45 40 3 53
-6 58 -41 1 -3 -38 -5 -86 -5 l-88 0 -3 -122 -3 -123 126 0 c69 0 125 4 125 9
0 5 13 4 30 -2 49 -19 56 -1 35 85 -9 40 -31 108 -47 151 -30 78 -30 79 -10
100 48 53 54 101 21 162 -12 22 -24 54 -28 70 -4 17 -13 29 -20 27 -7 -1 -30
3 -51 9 l-39 12 25 19 c13 11 31 33 39 49 9 16 22 29 30 29 11 0 15 13 15 50
0 28 5 50 10 50 6 0 10 -4 10 -9z m-650 -179 l22 -18 -56 -89 -56 -89 0 86 c0
82 2 88 26 107 32 25 36 26 64 3z m2710 0 l22 -17 -56 -88 c-49 -79 -56 -86
-65 -68 -27 50 -5 143 41 175 28 20 31 20 58 -2z m-4302 -149 l-3 -98 -37 -3
-38 -3 0 100 0 101 40 0 41 0 -3 -97z m1322 85 c1 -7 7 -49 15 -93 8 -44 15
-83 15 -87 0 -5 -16 -8 -35 -8 l-35 0 0 100 c0 93 1 100 20 100 11 0 20 -6 20
-12z m1180 -88 l0 -101 -71 3 -71 3 -1 98 -2 97 73 0 72 0 0 -100z m-315 -45
c0 -42 -18 -41 -43 4 -31 55 -28 67 11 44 24 -15 32 -26 32 -48z m2683 45 c39
-24 49 -45 32 -65 -19 -23 -25 -19 -54 35 -30 55 -27 60 22 30z m-3127 -16
c13 -14 36 -32 52 -40 15 -8 27 -21 27 -29 0 -12 -17 -15 -90 -15 -68 0 -90 3
-90 13 0 14 60 97 70 97 4 0 17 -12 31 -26z m302 -35 c14 -22 2 -49 -23 -49
-16 0 -20 6 -20 36 0 28 4 35 16 32 9 -2 21 -10 27 -19z m-223 -124 c0 -47 -3
-55 -18 -55 -11 0 -27 9 -38 21 -10 12 -48 36 -84 55 l-65 33 103 1 102 0 0
-55z m-150 -57 c0 -6 -7 -5 -15 2 -8 7 -15 17 -15 22 0 6 7 5 15 -2 8 -7 15
-17 15 -22z m-1672 -125 l-3 -98 -37 -3 -38 -3 0 100 0 101 40 0 41 0 -3 -97z
m1480 0 l-3 -98 -97 -3 -98 -3 0 101 0 100 100 0 101 0 -3 -97z m241 76 c31
-23 71 -19 71 7 0 8 7 14 15 14 12 0 15 -18 15 -100 l0 -100 -90 0 c-49 0 -90
3 -90 8 0 4 7 29 15 57 10 32 13 65 9 92 -5 36 -4 43 10 43 9 0 30 -9 45 -21z
m459 9 c8 -8 12 -45 12 -100 l0 -88 -95 0 -95 0 0 100 0 100 83 0 c51 0 88 -5
95 -12z m322 -88 l0 -101 -71 3 -71 3 -1 98 -2 97 73 0 72 0 0 -100z m-2502
-362 l-3 -103 -37 -3 -38 -3 0 105 0 106 40 0 41 0 -3 -102z m1122 92 c0 -5
-9 -10 -20 -10 -19 0 -20 -7 -20 -95 l0 -96 -102 3 -103 3 -3 103 -3 102 126
0 c77 0 125 -4 125 -10z m360 0 c0 -6 -40 -10 -100 -10 -60 0 -100 4 -100 10
0 6 40 10 100 10 60 0 100 -4 100 -10z m340 0 c0 -6 -37 -10 -90 -10 -53 0
-90 4 -90 10 0 6 37 10 90 10 53 0 90 -4 90 -10z m370 0 c0 -6 -38 -10 -95
-10 -57 0 -95 4 -95 10 0 6 38 10 95 10 57 0 95 -4 95 -10z m310 0 c0 -6 -32
-10 -75 -10 -43 0 -75 4 -75 10 0 6 32 10 75 10 43 0 75 -4 75 -10z"/>
<path d="M7415 6193 c-80 -5 -105 -20 -105 -67 0 -55 6 -57 131 -54 l114 3 3
47 c3 39 -1 49 -20 62 -12 9 -29 15 -38 14 -8 -1 -46 -4 -85 -5z m120 -63 l0
-35 -96 -3 -97 -3 -5 28 c-9 44 14 54 113 51 l85 -3 0 -35z"/>
<path d="M7680 6136 c-6 -8 -10 -25 -8 -38 3 -21 9 -23 71 -26 41 -2 67 1 67
7 0 10 -96 71 -111 71 -4 0 -12 -7 -19 -14z m60 -31 l25 -15 -34 2 c-19 2 -36
9 -39 16 -5 16 17 15 48 -3z"/>
<path d="M7125 6105 l-60 -35 65 2 65 3 3 33 c2 17 0 32 -5 32 -4 0 -35 -16
-68 -35z m55 -5 c0 -5 -8 -10 -17 -10 -15 0 -16 2 -3 10 19 12 20 12 20 0z"/>
<path d="M6957 5833 l2 -118 120 -3 121 -3 0 121 0 120 -122 0 -123 0 2 -117z
m223 2 l0 -95 -100 0 -100 0 0 95 0 95 100 0 100 0 0 -95z"/>
<path d="M7312 5833 l3 -118 123 -3 122 -3 0 121 0 120 -125 0 -126 0 3 -117z
m228 2 l0 -95 -100 0 -100 0 0 95 0 95 100 0 100 0 0 -95z"/>
<path d="M7672 5833 l3 -118 123 -3 122 -3 0 121 0 120 -125 0 -126 0 3 -117z
m228 2 l0 -95 -100 0 -100 0 0 95 0 95 100 0 100 0 0 -95z"/>
<path d="M8032 5818 l3 -103 103 -3 c56 -1 102 1 102 5 0 11 -193 203 -203
203 -4 0 -6 -46 -5 -102z m98 -13 l64 -65 -67 0 -67 0 0 65 c0 36 1 65 3 65 1
0 32 -29 67 -65z"/>
<path d="M6753 5814 c-43 -47 -79 -90 -81 -95 -2 -5 34 -9 82 -9 l86 0 0 95
c0 52 -2 95 -4 95 -3 0 -40 -39 -83 -86z m67 -24 l0 -50 -52 0 -52 0 49 50
c27 28 51 50 52 50 2 0 3 -22 3 -50z"/>
<path d="M6598 5479 c-2 -66 -1 -123 1 -125 2 -2 58 -4 123 -4 l118 0 0 125 0
125 -119 0 -120 0 -3 -121z m220 -1 l3 -98 -101 0 -100 0 0 100 0 101 98 -3
97 -3 3 -97z"/>
<path d="M6960 5595 c-1 -3 -1 -58 -1 -122 l0 -118 120 -3 121 -3 0 126 0 125
-120 0 c-66 0 -120 -2 -120 -5z m218 -117 l3 -98 -101 0 -100 0 0 100 0 101
98 -3 97 -3 3 -97z"/>
<path d="M7314 5587 c-2 -7 -3 -62 -2 -123 l3 -109 123 -3 122 -3 0 126 0 125
-120 0 c-90 0 -122 -3 -126 -13z m224 -109 l3 -98 -101 0 -100 0 0 100 0 101
98 -3 97 -3 3 -97z"/>
<path d="M7672 5478 l3 -123 123 -3 122 -3 0 126 0 125 -125 0 -126 0 3 -122z
m226 0 l3 -98 -101 0 -100 0 0 100 0 101 98 -3 97 -3 3 -97z"/>
<path d="M8032 5478 l3 -123 118 -3 117 -3 0 126 0 125 -120 0 -121 0 3 -122z
m218 2 l0 -100 -95 0 -95 0 0 100 0 100 95 0 95 0 0 -100z"/>
<path d="M8390 5436 c0 -58 3 -75 16 -80 19 -7 114 -8 114 -1 0 3 -17 29 -39
58 -21 29 -44 62 -50 75 -6 12 -18 22 -26 22 -12 0 -15 -16 -15 -74z m80 -51
c0 -3 -13 -5 -30 -5 -29 0 -30 1 -30 47 l0 46 30 -41 c17 -23 30 -44 30 -47z"/>
<path d="M6435 5424 c-35 -37 -30 -69 10 -69 28 0 30 3 33 39 5 54 -11 65 -43
30z m21 -52 c-12 -11 -18 7 -10 30 l8 23 4 -23 c2 -13 1 -26 -2 -30z"/>
<path d="M6276 5183 c-32 -52 -36 -65 -36 -125 l0 -68 120 0 120 0 0 125 0
125 -84 0 -83 0 -37 -57z m182 -65 l3 -98 -101 0 -100 0 0 48 c0 38 7 58 36
100 l35 53 62 -3 62 -3 3 -97z"/>
<path d="M6598 5119 c-2 -66 -1 -123 1 -125 2 -2 58 -4 123 -4 l118 0 0 125 0
125 -119 0 -120 0 -3 -121z m220 -1 l3 -98 -101 0 -100 0 0 100 0 101 98 -3
97 -3 3 -97z"/>
<path d="M6960 5235 c-1 -3 -1 -58 -1 -122 l0 -118 120 -3 121 -3 0 126 0 125
-120 0 c-66 0 -120 -2 -120 -5z m218 -117 l3 -98 -101 0 -100 0 0 100 0 101
98 -3 97 -3 3 -97z"/>
<path d="M7312 5118 l3 -123 123 -3 122 -3 0 126 0 125 -125 0 -126 0 3 -122z
m226 0 l3 -98 -101 0 -100 0 0 100 0 101 98 -3 97 -3 3 -97z"/>
<path d="M7672 5118 l3 -123 123 -3 122 -3 0 126 0 125 -125 0 -126 0 3 -122z
m226 0 l3 -98 -101 0 -100 0 0 100 0 101 98 -3 97 -3 3 -97z"/>
<path d="M8032 5118 l3 -123 118 -3 117 -3 0 126 0 125 -120 0 -121 0 3 -122z
m218 2 l0 -100 -95 0 -95 0 0 100 0 100 95 0 95 0 0 -100z"/>
<path d="M8390 5115 l0 -126 143 3 142 3 0 61 c0 53 -5 69 -37 120 l-36 59
-106 3 -106 3 0 -126z m229 50 c19 -32 36 -74 39 -100 l5 -45 -127 0 -126 0 0
100 0 100 88 0 88 0 33 -55z"/>
<path d="M8797 4863 c-10 -58 -8 -196 3 -213 7 -11 27 -15 75 -15 36 0 65 3
65 6 0 3 -31 63 -69 133 l-68 127 -6 -38z m73 -135 c17 -32 30 -60 30 -63 0
-3 -18 -5 -40 -5 l-40 0 0 78 c0 85 1 85 50 -10z"/>
<path d="M7310 4762 c0 -65 2 -121 4 -123 2 -2 59 -3 125 -1 l121 3 0 120 0
119 -125 0 -125 0 0 -118z m228 -4 l3 -98 -101 0 -100 0 0 100 0 101 98 -3 97
-3 3 -97z"/>
<path d="M7670 4762 c0 -65 2 -121 4 -123 2 -2 59 -3 125 -1 l121 3 0 120 0
119 -125 0 -125 0 0 -118z m228 -4 l3 -98 -101 0 -100 0 0 100 0 101 98 -3 97
-3 3 -97z"/>
<path d="M8032 4759 l3 -120 118 -2 117 -2 0 123 0 122 -120 0 -121 0 3 -121z
m218 1 l0 -100 -95 0 -95 0 0 100 0 100 95 0 95 0 0 -100z"/>
<path d="M8390 4758 l0 -123 142 2 143 2 3 120 3 121 -146 0 -145 0 0 -122z
m268 0 l3 -98 -126 0 -125 0 0 100 0 101 123 -3 122 -3 3 -97z"/>
<path d="M5896 4486 c-11 -23 -16 -62 -16 -120 l0 -86 120 0 120 0 0 120 0
120 -104 0 -104 0 -16 -34z m204 -86 l0 -100 -100 0 -100 0 0 65 c0 36 7 81
14 100 l15 35 85 0 86 0 0 -100z"/>
<path d="M6240 4400 l0 -120 120 0 120 0 0 120 0 120 -120 0 -120 0 0 -120z
m220 0 l0 -100 -100 0 -100 0 0 100 0 100 100 0 100 0 0 -100z"/>
<path d="M6598 4400 l-3 -120 123 0 122 0 0 120 0 120 -119 0 -120 0 -3 -120z
m222 0 l0 -100 -100 0 -100 0 0 100 0 100 100 0 100 0 0 -100z"/>
<path d="M6955 4400 l0 -120 123 0 122 0 0 120 0 120 -122 0 -123 0 0 -120z
m225 0 l0 -100 -100 0 -100 0 0 100 0 100 100 0 100 0 0 -100z"/>
<path d="M7310 4400 l0 -120 125 0 125 0 0 120 0 120 -125 0 -125 0 0 -120z
m228 -2 l3 -98 -101 0 -100 0 0 100 0 101 98 -3 97 -3 3 -97z"/>
<path d="M7670 4400 l0 -120 125 0 125 0 0 120 0 120 -125 0 -125 0 0 -120z
m228 -2 l3 -98 -101 0 -100 0 0 100 0 101 98 -3 97 -3 3 -97z"/>
<path d="M8030 4400 l0 -120 120 0 120 0 0 120 0 120 -120 0 -120 0 0 -120z
m220 0 l0 -100 -95 0 -95 0 0 100 0 100 95 0 95 0 0 -100z"/>
<path d="M8390 4400 l0 -120 145 0 145 0 0 120 0 120 -145 0 -145 0 0 -120z
m268 -2 l3 -98 -126 0 -125 0 0 100 0 101 123 -3 122 -3 3 -97z"/>
<path d="M8790 4400 l0 -120 126 0 126 0 -4 93 c-3 50 -11 104 -18 120 -13 27
-13 27 -122 27 l-108 0 0 -120z m211 78 c7 -12 13 -57 14 -100 l2 -78 -98 0
-99 0 0 100 0 100 85 0 c77 0 85 -2 96 -22z"/>
<path d="M5880 4040 l0 -120 120 0 120 0 0 120 0 120 -120 0 -120 0 0 -120z
m220 0 l0 -100 -100 0 -100 0 0 100 0 100 100 0 100 0 0 -100z"/>
<path d="M6240 4040 l0 -120 120 0 120 0 0 120 0 120 -120 0 -120 0 0 -120z
m220 0 l0 -100 -100 0 -100 0 0 100 0 100 100 0 100 0 0 -100z"/>
<path d="M6598 4040 l-3 -120 123 0 122 0 0 120 0 120 -119 0 -120 0 -3 -120z
m222 0 l0 -100 -100 0 -100 0 0 100 0 100 100 0 100 0 0 -100z"/>
<path d="M6955 4040 l0 -120 123 0 122 0 0 120 0 120 -122 0 -123 0 0 -120z
m225 0 l0 -100 -100 0 -100 0 0 100 0 100 100 0 100 0 0 -100z"/>
<path d="M7310 4040 l0 -120 125 0 125 0 0 120 0 120 -125 0 -125 0 0 -120z
m230 0 l0 -100 -100 0 -100 0 0 100 0 100 100 0 100 0 0 -100z"/>
<path d="M7670 4040 l0 -120 125 0 125 0 0 120 0 120 -125 0 -125 0 0 -120z
m230 0 l0 -100 -100 0 -100 0 0 100 0 100 100 0 100 0 0 -100z"/>
<path d="M8030 4040 l0 -120 120 0 120 0 0 120 0 120 -120 0 -120 0 0 -120z
m220 0 l0 -100 -95 0 -95 0 0 100 0 100 95 0 95 0 0 -100z"/>
<path d="M8390 4040 l0 -120 145 0 145 0 0 120 0 120 -145 0 -145 0 0 -120z
m268 -2 l3 -98 -126 0 -125 0 0 100 0 101 123 -3 122 -3 3 -97z"/>
<path d="M8790 4040 l0 -120 125 0 125 0 0 120 0 120 -125 0 -125 0 0 -120z
m228 -2 l3 -98 -101 0 -100 0 0 100 0 101 98 -3 97 -3 3 -97z"/>
<path d="M9157 4144 c-12 -13 -8 -212 5 -220 10 -7 108 -7 115 0 5 5 -94 220
-104 223 -5 2 -12 0 -16 -3z m60 -130 l31 -75 -35 3 -35 3 -1 73 c-1 39 0 72
3 72 3 0 19 -34 37 -76z"/>
<path d="M6240 3680 l0 -120 120 0 120 0 0 120 0 120 -120 0 -120 0 0 -120z
m220 0 l0 -100 -100 0 -100 0 0 100 0 100 100 0 100 0 0 -100z"/>
<path d="M6600 3680 l0 -120 120 0 120 0 0 120 0 120 -120 0 -120 0 0 -120z
m220 0 l0 -100 -100 0 -100 0 0 100 0 100 100 0 100 0 0 -100z"/>
<path d="M6955 3680 l0 -120 123 0 122 0 0 120 0 120 -122 0 -123 0 0 -120z
m225 0 l0 -100 -100 0 -100 0 0 100 0 100 100 0 100 0 0 -100z"/>
<path d="M7310 3680 l0 -120 125 0 125 0 0 120 0 120 -125 0 -125 0 0 -120z
m230 0 l0 -100 -100 0 -100 0 0 100 0 100 100 0 100 0 0 -100z"/>
<path d="M7670 3680 l0 -120 125 0 125 0 0 120 0 120 -125 0 -125 0 0 -120z
m230 0 l0 -100 -100 0 -100 0 0 100 0 100 100 0 100 0 0 -100z"/>
<path d="M8030 3680 l0 -120 120 0 120 0 0 120 0 120 -120 0 -120 0 0 -120z
m220 0 l0 -100 -95 0 -95 0 0 100 0 100 95 0 95 0 0 -100z"/>
<path d="M8390 3680 l0 -120 145 0 145 0 0 120 0 120 -145 0 -145 0 0 -120z
m268 -2 l3 -98 -126 0 -125 0 0 100 0 101 123 -3 122 -3 3 -97z"/>
<path d="M8790 3680 l0 -120 125 0 125 0 0 120 0 120 -125 0 -125 0 0 -120z
m228 -2 l3 -98 -101 0 -100 0 0 100 0 101 98 -3 97 -3 3 -97z"/>
<path d="M9150 3680 l0 -120 125 0 125 0 0 38 c0 20 -15 73 -33 117 l-33 80
-92 3 -92 3 0 -121z m192 37 c15 -35 30 -80 33 -100 l7 -37 -101 0 -101 0 0
100 0 100 68 0 68 0 26 -63z"/>
<path d="M6600 3320 l0 -120 120 0 120 0 0 120 0 120 -120 0 -120 0 0 -120z
m220 0 l0 -100 -100 0 -100 0 0 100 0 100 100 0 100 0 0 -100z"/>
<path d="M6955 3320 l0 -120 123 0 122 0 0 120 0 120 -122 0 -123 0 0 -120z
m225 0 l0 -100 -100 0 -100 0 0 100 0 100 100 0 100 0 0 -100z"/>
<path d="M7310 3320 l0 -120 125 0 125 0 0 120 0 120 -125 0 -125 0 0 -120z
m230 0 l0 -100 -100 0 -100 0 0 100 0 100 100 0 100 0 0 -100z"/>
<path d="M7670 3320 l0 -120 125 0 125 0 0 120 0 120 -125 0 -125 0 0 -120z
m230 0 l0 -100 -100 0 -100 0 0 100 0 100 100 0 100 0 0 -100z"/>
<path d="M8030 3320 l0 -120 120 0 120 0 0 120 0 120 -120 0 -120 0 0 -120z
m220 0 l0 -100 -95 0 -95 0 0 100 0 100 95 0 95 0 0 -100z"/>
<path d="M8390 3320 l0 -120 145 0 145 0 0 120 0 120 -145 0 -145 0 0 -120z
m268 -2 l3 -98 -126 0 -125 0 0 100 0 101 123 -3 122 -3 3 -97z"/>
<path d="M8790 3320 l0 -120 125 0 125 0 0 120 0 120 -125 0 -125 0 0 -120z
m228 -2 l3 -98 -101 0 -100 0 0 100 0 101 98 -3 97 -3 3 -97z"/>
<path d="M9150 3320 l0 -120 125 0 125 0 0 120 0 120 -125 0 -125 0 0 -120z
m220 0 l0 -100 -95 0 -95 0 0 100 0 100 95 0 95 0 0 -100z"/>
<path d="M6955 2960 l0 -120 123 0 122 0 0 120 0 120 -122 0 -123 0 0 -120z
m225 0 l0 -100 -100 0 -100 0 0 100 0 100 100 0 100 0 0 -100z"/>
<path d="M7310 2960 l0 -120 125 0 125 0 0 120 0 120 -125 0 -125 0 0 -120z
m230 0 l0 -100 -100 0 -100 0 0 100 0 100 100 0 100 0 0 -100z"/>
<path d="M7670 2960 l0 -120 125 0 125 0 0 120 0 120 -125 0 -125 0 0 -120z
m230 0 l0 -100 -100 0 -100 0 0 100 0 100 100 0 100 0 0 -100z"/>
<path d="M8030 2960 l0 -120 120 0 120 0 0 120 0 120 -120 0 -120 0 0 -120z
m220 0 l0 -100 -95 0 -95 0 0 100 0 100 95 0 95 0 0 -100z"/>
<path d="M8390 2960 l0 -120 145 0 145 0 0 120 0 120 -145 0 -145 0 0 -120z
m270 0 l0 -100 -125 0 -125 0 0 100 0 100 125 0 125 0 0 -100z"/>
<path d="M8790 2960 l0 -120 125 0 125 0 0 120 0 120 -125 0 -125 0 0 -120z
m228 3 l-3 -98 -97 -3 -98 -3 0 101 0 100 100 0 101 0 -3 -97z"/>
<path d="M7310 2600 l0 -120 125 0 125 0 0 120 0 120 -125 0 -125 0 0 -120z
m230 0 l0 -100 -100 0 -100 0 0 100 0 100 100 0 100 0 0 -100z"/>
<path d="M7670 2600 l0 -120 125 0 125 0 0 120 0 120 -125 0 -125 0 0 -120z
m230 0 l0 -100 -100 0 -100 0 0 100 0 100 100 0 100 0 0 -100z"/>
<path d="M8030 2600 l0 -120 120 0 120 0 0 120 0 120 -120 0 -120 0 0 -120z
m220 0 l0 -100 -95 0 -95 0 0 100 0 100 95 0 95 0 0 -100z"/>
<path d="M7670 2240 l0 -120 125 0 125 0 0 120 0 120 -125 0 -125 0 0 -120z
m230 0 l0 -100 -100 0 -100 0 0 100 0 100 100 0 100 0 0 -100z"/>
<path d="M8030 2240 l0 -120 120 0 120 0 0 120 0 120 -120 0 -120 0 0 -120z
m220 0 l0 -100 -95 0 -95 0 0 100 0 100 95 0 95 0 0 -100z"/>
<path d="M7890 2027 c9 -10 113 -48 117 -43 7 7 -47 33 -87 41 -19 4 -33 5
-30 2z"/>
<path d="M7670 1880 l0 -120 125 0 125 0 0 120 0 120 -125 0 -125 0 0 -120z
m228 3 l-3 -98 -97 -3 -98 -3 0 101 0 100 100 0 101 0 -3 -97z"/>
<path d="M8030 1880 l0 -120 120 0 120 0 0 120 0 120 -120 0 -120 0 0 -120z
m220 0 l0 -100 -95 0 -95 0 0 100 0 100 95 0 95 0 0 -100z"/>
<path d="M8390 1880 l0 -120 145 0 145 0 0 120 0 120 -145 0 -145 0 0 -120z
m268 3 l-3 -98 -122 -3 -123 -3 0 101 0 100 125 0 126 0 -3 -97z"/>
<path d="M8790 1880 l0 -120 125 0 125 0 0 120 0 120 -125 0 -125 0 0 -120z
m228 3 l-3 -98 -97 -3 -98 -3 0 101 0 100 100 0 101 0 -3 -97z"/>
<path d="M8148 1643 l-118 -4 0 -119 0 -120 120 0 120 0 0 125 c0 69 -1 124
-2 123 -2 -1 -56 -4 -120 -5z m102 -123 l0 -100 -95 0 -95 0 0 100 0 100 95 0
95 0 0 -100z"/>
<path d="M7670 1520 l0 -120 125 0 125 0 0 120 0 120 -125 0 -125 0 0 -120z
m228 3 l-3 -98 -97 -3 -98 -3 0 101 0 100 100 0 101 0 -3 -97z"/>
<path d="M8390 1520 l0 -120 145 0 145 0 0 120 0 120 -145 0 -145 0 0 -120z
m268 3 l-3 -98 -122 -3 -123 -3 0 101 0 100 125 0 126 0 -3 -97z"/>
<path d="M7674 1281 c-2 -2 -4 -58 -4 -123 l0 -118 125 0 126 0 -3 121 -3 120
-118 2 c-65 1 -121 0 -123 -2z m224 -118 l-3 -98 -97 -3 -98 -3 0 101 0 100
100 0 101 0 -3 -97z"/>
<path d="M8034 1281 c-2 -2 -4 -58 -4 -123 l0 -118 120 0 120 0 0 123 0 122
-116 0 c-64 0 -118 -2 -120 -4z m216 -121 l0 -100 -95 0 -95 0 0 100 0 100 95
0 95 0 0 -100z"/>
<path d="M8390 1163 l0 -123 145 0 146 0 -3 121 -3 120 -143 2 -142 2 0 -122z
m268 0 l-3 -98 -122 -3 -123 -3 0 101 0 100 125 0 126 0 -3 -97z"/>
<path d="M7677 923 c-4 -3 -7 -60 -7 -125 l0 -118 125 0 125 0 0 125 0 125
-118 0 c-65 0 -122 -3 -125 -7z m221 -120 l-3 -98 -97 -3 -98 -3 0 101 0 100
100 0 101 0 -3 -97z"/>
<path d="M8037 923 c-4 -3 -7 -60 -7 -125 l0 -118 120 0 120 0 0 125 0 125
-113 0 c-63 0 -117 -3 -120 -7z m213 -123 l0 -100 -95 0 -95 0 0 100 0 100 95
0 95 0 0 -100z"/>
<path d="M8390 805 l0 -125 145 0 146 0 -3 123 -3 122 -142 3 -143 3 0 -126z
m268 -2 l-3 -98 -122 -3 -123 -3 0 101 0 100 125 0 126 0 -3 -97z"/>
<path d="M7674 557 c-2 -7 -3 -65 -2 -128 l3 -114 123 -3 122 -3 0 131 0 130
-120 0 c-90 0 -122 -3 -126 -13z m224 -119 l-3 -103 -97 -3 -98 -3 0 106 0
105 100 0 101 0 -3 -102z"/>
<path d="M8034 557 c-2 -7 -3 -65 -2 -128 l3 -114 118 -3 117 -3 0 131 0 130
-115 0 c-86 0 -117 -3 -121 -13z m214 -119 l-3 -103 -92 -3 -93 -3 0 106 0
105 95 0 96 0 -3 -102z"/>
<path d="M2280 4402 l0 -122 120 0 120 0 0 109 c0 127 11 118 -142 128 l-98 6
0 -121z m198 81 c21 -5 22 -10 22 -94 l0 -89 -100 0 -100 0 0 101 0 102 78 -7
c42 -4 87 -10 100 -13z"/>
<path d="M2065 4494 c-28 -7 -71 -22 -97 -33 l-48 -20 0 -81 0 -80 123 0 122
0 0 98 c0 53 -3 102 -7 108 -13 19 -41 22 -93 8z m79 -36 c0 -10 -1 -49 -2
-88 l-2 -70 -100 0 -100 0 0 65 c0 36 1 65 3 65 2 0 35 11 73 25 79 28 129 29
128 3z"/>
<path d="M2640 4371 l0 -91 88 -2 c146 -3 152 -1 152 53 0 23 -11 31 -97 71
-155 72 -143 75 -143 -31z m127 14 c73 -34 94 -48 91 -62 -3 -16 -17 -18 -101
-21 l-97 -3 0 66 c0 36 3 65 6 65 4 0 49 -20 101 -45z"/>
<path d="M1786 4372 c-4 -6 -29 -23 -56 -38 -27 -15 -51 -33 -54 -40 -6 -16
-7 -15 56 -20 40 -2 50 1 63 19 17 24 19 55 6 76 -6 9 -11 10 -15 3z m-6 -56
c0 -20 -12 -26 -39 -19 l-23 6 23 13 c31 17 39 17 39 0z"/>
<path d="M1560 4040 l0 -120 123 0 122 0 0 120 0 120 -122 0 -123 0 0 -120z
m220 0 l0 -100 -100 0 -100 0 0 100 0 100 100 0 100 0 0 -100z"/>
<path d="M1920 4040 l0 -120 123 0 122 0 0 120 0 120 -122 0 -123 0 0 -120z
m220 0 l0 -100 -100 0 -100 0 0 100 0 100 100 0 100 0 0 -100z"/>
<path d="M2280 4040 l0 -120 120 0 120 0 0 120 0 120 -120 0 -120 0 0 -120z
m220 0 l0 -100 -100 0 -100 0 0 100 0 100 100 0 100 0 0 -100z"/>
<path d="M2640 4040 l0 -120 120 0 120 0 0 120 0 120 -120 0 -120 0 0 -120z
m212 0 l3 -100 -97 0 -98 0 0 100 0 100 94 0 95 0 3 -100z"/>
<path d="M3000 4040 l0 -120 120 0 120 0 0 91 c0 87 -1 92 -29 120 -28 28 -33
29 -120 29 l-91 0 0 -120z m195 75 c22 -21 25 -33 25 -100 l0 -75 -100 0 -100
0 0 100 0 100 75 0 c67 0 79 -3 100 -25z"/>
<path d="M1395 4023 c-58 -66 -65 -77 -55 -93 10 -17 75 -17 95 0 9 8 13 31
12 76 -1 35 -4 64 -7 63 -3 0 -23 -21 -45 -46z m25 -48 c0 -32 -2 -35 -31 -35
l-31 0 29 34 c15 19 29 35 31 35 1 1 2 -15 2 -34z"/>
<path d="M3356 3965 c-3 -9 3 -24 14 -35 21 -21 26 -22 52 -12 16 7 16 10 -7
35 -29 30 -50 35 -59 12z"/>
<path d="M1216 3775 c-12 -18 -16 -49 -16 -120 l0 -95 125 0 125 0 0 120 0
120 -109 0 c-105 0 -109 -1 -125 -25z m204 -95 l0 -100 -100 0 -100 0 0 80 c0
115 5 120 112 120 l88 0 0 -100z"/>
<path d="M1560 3680 l0 -120 123 0 122 0 0 120 0 120 -122 0 -123 0 0 -120z
m220 0 l0 -100 -100 0 -100 0 0 100 0 100 100 0 100 0 0 -100z"/>
<path d="M1920 3680 l0 -120 123 0 122 0 0 120 0 120 -122 0 -123 0 0 -120z
m220 0 l0 -100 -100 0 -100 0 0 100 0 100 100 0 100 0 0 -100z"/>
<path d="M2280 3680 l0 -120 120 0 120 0 0 120 0 120 -120 0 -120 0 0 -120z
m220 0 l0 -100 -100 0 -100 0 0 100 0 100 100 0 100 0 0 -100z"/>
<path d="M2640 3680 l0 -120 120 0 120 0 0 120 0 120 -120 0 -120 0 0 -120z
m212 0 l3 -100 -97 0 -98 0 0 100 0 100 94 0 95 0 3 -100z"/>
<path d="M3000 3680 l0 -120 120 0 120 0 0 120 0 120 -120 0 -120 0 0 -120z
m220 0 l0 -100 -100 0 -100 0 0 100 0 100 100 0 100 0 0 -100z"/>
<path d="M3360 3680 l0 -120 120 0 120 0 0 100 c0 87 -3 103 -20 120 -17 17
-33 20 -120 20 l-100 0 0 -120z m202 83 c15 -13 18 -31 18 -100 l0 -83 -100 0
-100 0 0 100 0 100 82 0 c62 0 86 -4 100 -17z"/>
<path d="M3720 3595 c0 -31 37 -51 77 -40 l28 7 -35 29 c-44 36 -70 38 -70 4z
m40 -10 c11 -13 10 -14 -4 -9 -9 3 -16 10 -16 15 0 13 6 11 20 -6z"/>
<path d="M1019 3419 c-17 -17 -109 -198 -109 -215 0 -2 41 -4 90 -4 l90 0 0
120 0 120 -25 0 c-14 0 -34 -9 -46 -21z m41 -99 l0 -100 -60 0 -59 0 35 77
c29 65 67 123 81 123 2 0 3 -45 3 -100z"/>
<path d="M1200 3320 l0 -120 125 0 125 0 0 120 0 120 -125 0 -125 0 0 -120z
m220 0 l0 -100 -100 0 -100 0 0 100 0 100 100 0 100 0 0 -100z"/>
<path d="M1560 3320 l0 -120 123 0 122 0 0 120 0 120 -122 0 -123 0 0 -120z
m220 0 l0 -100 -100 0 -100 0 0 100 0 100 100 0 100 0 0 -100z"/>
<path d="M1920 3320 l0 -120 123 0 122 0 0 120 0 120 -122 0 -123 0 0 -120z
m220 0 l0 -100 -100 0 -100 0 0 100 0 100 100 0 100 0 0 -100z"/>
<path d="M2280 3320 l0 -120 120 0 120 0 0 120 0 120 -120 0 -120 0 0 -120z
m220 0 l0 -100 -100 0 -100 0 0 100 0 100 100 0 100 0 0 -100z"/>
<path d="M2640 3320 l0 -120 120 0 120 0 0 120 0 120 -120 0 -120 0 0 -120z
m210 0 l0 -100 -95 0 -95 0 0 100 0 100 95 0 95 0 0 -100z"/>
<path d="M3000 3320 l0 -120 120 0 120 0 0 120 0 120 -120 0 -120 0 0 -120z
m220 0 l0 -100 -100 0 -100 0 0 100 0 100 100 0 100 0 0 -100z"/>
<path d="M3360 3320 l0 -120 120 0 120 0 0 120 0 120 -120 0 -120 0 0 -120z
m220 0 l0 -100 -100 0 -100 0 0 100 0 100 100 0 100 0 0 -100z"/>
<path d="M3720 3320 l0 -120 120 0 120 0 0 120 0 120 -120 0 -120 0 0 -120z
m220 0 l0 -100 -100 0 -100 0 0 100 0 100 100 0 100 0 0 -100z"/>
<path d="M4080 3296 l0 -94 103 -4 c117 -4 126 -3 136 25 16 43 2 64 -58 88
-31 12 -82 35 -113 51 -32 15 -60 28 -63 28 -3 0 -5 -42 -5 -94z m203 -19 c10
-4 17 -17 17 -32 l0 -25 -100 0 -100 0 0 69 0 70 83 -38 c45 -21 90 -41 100
-44z"/>
<path d="M4442 3229 c3 -23 6 -24 111 -27 73 -2 114 1 130 10 20 12 14 14 -58
19 -44 3 -104 10 -133 14 -53 8 -54 7 -50 -16z"/>
<path d="M846 3049 c-3 -17 -6 -71 -6 -120 l0 -89 125 0 125 0 0 120 0 120
-119 0 -118 0 -7 -31z m214 -89 l0 -100 -100 0 -100 0 0 69 c0 38 3 83 6 100
l7 31 93 0 94 0 0 -100z"/>
<path d="M1200 2960 l0 -120 125 0 125 0 0 120 0 120 -125 0 -125 0 0 -120z
m220 0 l0 -100 -100 0 -100 0 0 100 0 100 100 0 100 0 0 -100z"/>
<path d="M1560 2960 l0 -120 123 0 122 0 0 120 0 120 -122 0 -123 0 0 -120z
m220 0 l0 -100 -100 0 -100 0 0 100 0 100 100 0 100 0 0 -100z"/>
<path d="M1920 2960 l0 -120 123 0 122 0 0 120 0 120 -122 0 -123 0 0 -120z
m220 0 l0 -100 -100 0 -100 0 0 100 0 100 100 0 100 0 0 -100z"/>
<path d="M2280 2960 l0 -120 120 0 120 0 0 120 0 120 -120 0 -120 0 0 -120z
m220 0 l0 -100 -100 0 -100 0 0 100 0 100 100 0 100 0 0 -100z"/>
<path d="M2640 2960 l0 -120 120 0 120 0 0 120 0 120 -120 0 -120 0 0 -120z
m210 0 l0 -100 -95 0 -95 0 0 100 0 100 95 0 95 0 0 -100z"/>
<path d="M3000 2960 l0 -120 120 0 120 0 0 120 0 120 -120 0 -120 0 0 -120z
m220 0 l0 -100 -100 0 -100 0 0 100 0 100 100 0 100 0 0 -100z"/>
<path d="M3360 2960 l0 -120 120 0 120 0 0 120 0 120 -120 0 -120 0 0 -120z
m220 0 l0 -100 -100 0 -100 0 0 100 0 100 100 0 100 0 0 -100z"/>
<path d="M3720 2960 l0 -120 120 0 120 0 0 120 0 120 -120 0 -120 0 0 -120z
m220 0 l0 -100 -100 0 -100 0 0 100 0 100 100 0 100 0 0 -100z"/>
<path d="M4080 2960 l0 -120 120 0 120 0 0 120 0 120 -120 0 -120 0 0 -120z
m220 0 l0 -100 -100 0 -100 0 0 100 0 100 100 0 100 0 0 -100z"/>
<path d="M840 2600 l0 -120 125 0 125 0 0 120 0 120 -125 0 -125 0 0 -120z
m220 0 l0 -100 -100 0 -100 0 0 100 0 100 100 0 100 0 0 -100z"/>
<path d="M1200 2600 l0 -120 125 0 125 0 0 120 0 120 -125 0 -125 0 0 -120z
m220 0 l0 -100 -100 0 -100 0 0 100 0 100 100 0 100 0 0 -100z"/>
<path d="M1560 2600 l0 -120 123 0 122 0 0 120 0 120 -122 0 -123 0 0 -120z
m220 0 l0 -100 -100 0 -100 0 0 100 0 100 100 0 100 0 0 -100z"/>
<path d="M1920 2600 l0 -120 123 0 122 0 0 120 0 120 -122 0 -123 0 0 -120z
m220 0 l0 -100 -100 0 -100 0 0 100 0 100 100 0 100 0 0 -100z"/>
<path d="M2280 2600 l0 -120 120 0 120 0 0 120 0 120 -120 0 -120 0 0 -120z
m220 0 l0 -100 -100 0 -100 0 0 100 0 100 100 0 100 0 0 -100z"/>
<path d="M2640 2600 l0 -120 120 0 120 0 0 120 0 120 -120 0 -120 0 0 -120z
m210 0 l0 -100 -95 0 -95 0 0 100 0 100 95 0 95 0 0 -100z"/>
<path d="M700 2687 c0 -8 -13 -44 -30 -80 -16 -37 -30 -78 -30 -91 0 -31 30
-49 65 -40 l26 6 -3 106 c-2 73 -7 107 -15 110 -7 2 -13 -3 -13 -11z m0 -132
c0 -48 -2 -55 -20 -55 -11 0 -20 6 -20 12 0 13 33 98 38 98 1 0 2 -25 2 -55z"/>
<path d="M626 2361 l-39 -6 -28 -90 c-16 -49 -31 -102 -34 -117 l-7 -28 106 0
106 0 0 105 c0 92 -3 108 -20 125 -11 11 -26 19 -32 19 -7 -1 -31 -5 -52 -8z
m74 -121 l0 -100 -76 0 c-68 0 -76 2 -72 18 3 9 16 54 29 100 l24 82 47 0 48
0 0 -100z"/>
<path d="M840 2240 l0 -120 125 0 125 0 0 120 0 120 -125 0 -125 0 0 -120z
m220 0 l0 -100 -100 0 -100 0 0 100 0 100 100 0 100 0 0 -100z"/>
<path d="M1200 2240 l0 -120 125 0 125 0 0 120 0 120 -125 0 -125 0 0 -120z
m220 0 l0 -100 -100 0 -100 0 0 100 0 100 100 0 100 0 0 -100z"/>
<path d="M1560 2240 l0 -120 123 0 122 0 0 120 0 120 -122 0 -123 0 0 -120z
m220 0 l0 -100 -100 0 -100 0 0 100 0 100 100 0 100 0 0 -100z"/>
<path d="M1920 2240 l0 -120 123 0 122 0 0 120 0 120 -122 0 -123 0 0 -120z
m220 0 l0 -100 -100 0 -100 0 0 100 0 100 100 0 100 0 0 -100z"/>
<path d="M2280 2240 l0 -120 120 0 120 0 0 120 0 120 -120 0 -120 0 0 -120z
m220 0 l0 -100 -100 0 -100 0 0 100 0 100 100 0 100 0 0 -100z"/>
<path d="M480 1880 l0 -120 125 0 125 0 0 120 0 120 -125 0 -125 0 0 -120z
m220 0 l0 -101 -97 3 -98 3 -3 98 -3 97 101 0 100 0 0 -100z"/>
<path d="M840 1880 l0 -120 125 0 125 0 0 120 0 120 -125 0 -125 0 0 -120z
m220 0 l0 -101 -97 3 -98 3 -3 98 -3 97 101 0 100 0 0 -100z"/>
<path d="M1200 1880 l0 -120 125 0 125 0 0 120 0 120 -125 0 -125 0 0 -120z
m220 0 l0 -100 -100 0 -100 0 0 100 0 100 100 0 100 0 0 -100z"/>
<path d="M1560 1880 l0 -120 123 0 122 0 0 120 0 120 -122 0 -123 0 0 -120z
m220 0 l0 -100 -100 0 -100 0 0 100 0 100 100 0 100 0 0 -100z"/>
<path d="M1920 1880 l0 -120 123 0 122 0 0 120 0 120 -122 0 -123 0 0 -120z
m220 0 l0 -100 -100 0 -100 0 0 100 0 100 100 0 100 0 0 -100z"/>
<path d="M480 1520 l0 -120 125 0 125 0 0 120 0 120 -125 0 -125 0 0 -120z
m220 0 l0 -101 -97 3 -98 3 -3 98 -3 97 101 0 100 0 0 -100z"/>
<path d="M840 1520 l0 -120 125 0 125 0 0 120 0 120 -125 0 -125 0 0 -120z
m220 0 l0 -101 -97 3 -98 3 -3 98 -3 97 101 0 100 0 0 -100z"/>
<path d="M1200 1520 l0 -120 125 0 125 0 0 120 0 120 -125 0 -125 0 0 -120z
m220 0 l0 -101 -97 3 -98 3 -3 98 -3 97 101 0 100 0 0 -100z"/>
<path d="M1560 1520 l0 -120 123 0 122 0 0 120 0 120 -122 0 -123 0 0 -120z
m220 0 l0 -100 -100 0 -100 0 0 100 0 100 100 0 100 0 0 -100z"/>
<path d="M340 1430 c0 -16 4 -30 9 -30 12 0 24 37 16 50 -12 20 -25 10 -25
-20z"/>
<path d="M317 1277 c-21 -15 -59 -170 -50 -205 7 -28 34 -40 74 -34 l30 4 -3
122 c-3 128 -10 144 -51 113z m23 -117 l0 -100 -25 0 c-21 0 -25 5 -25 29 0
43 31 171 41 171 5 0 9 -45 9 -100z"/>
<path d="M484 1281 c-2 -2 -4 -58 -4 -123 l0 -118 125 0 126 0 -3 121 -3 120
-118 2 c-65 1 -121 0 -123 -2z m216 -121 l0 -101 -97 3 -98 3 -3 98 -3 97 101
0 100 0 0 -100z"/>
<path d="M844 1281 c-2 -2 -4 -58 -4 -123 l0 -118 125 0 126 0 -3 121 -3 120
-118 2 c-65 1 -121 0 -123 -2z m216 -121 l0 -101 -97 3 -98 3 -3 98 -3 97 101
0 100 0 0 -100z"/>
<path d="M1204 1281 c-2 -2 -4 -58 -4 -123 l0 -118 125 0 126 0 -3 121 -3 120
-118 2 c-65 1 -121 0 -123 -2z m216 -121 l0 -101 -97 3 -98 3 -3 98 -3 97 101
0 100 0 0 -100z"/>
<path d="M1560 1163 l0 -123 123 0 122 0 -2 120 -2 121 -121 2 -120 2 0 -122z
m220 -3 l0 -101 -97 3 -98 3 -3 98 -3 97 101 0 100 0 0 -100z"/>
<path d="M211 814 c-12 -61 -21 -116 -21 -122 0 -8 29 -12 90 -12 l90 0 0 109
c0 133 -6 142 -85 138 l-54 -2 -20 -111z m129 -14 l0 -100 -58 0 c-32 0 -61 2
-64 5 -3 3 -2 23 3 43 5 20 13 63 19 95 l11 57 45 0 44 0 0 -100z"/>
<path d="M480 805 l0 -125 125 0 126 0 -3 123 -3 122 -122 3 -123 3 0 -126z
m220 -5 l0 -101 -97 3 -98 3 -3 98 -3 97 101 0 100 0 0 -100z"/>
<path d="M840 805 l0 -125 125 0 126 0 -3 123 -3 122 -122 3 -123 3 0 -126z
m220 -5 l0 -101 -97 3 -98 3 -3 98 -3 97 101 0 100 0 0 -100z"/>
<path d="M1200 805 l0 -125 125 0 126 0 -3 123 -3 122 -122 3 -123 3 0 -126z
m220 -5 l0 -101 -97 3 -98 3 -3 98 -3 97 101 0 100 0 0 -100z"/>
<path d="M1560 805 l0 -126 121 3 120 3 0 120 0 120 -120 3 -121 3 0 -126z
m220 -5 l0 -101 -97 3 -98 3 -3 98 -3 97 101 0 100 0 0 -100z"/>
<path d="M176 547 c-19 -19 -24 -37 -30 -120 -3 -54 -4 -102 -1 -108 4 -5 55
-9 116 -9 l109 0 0 120 c0 140 0 140 -105 140 -55 0 -70 -4 -89 -23z m164
-112 l0 -105 -85 0 -85 0 0 86 c0 119 4 124 95 124 l75 0 0 -105z"/>
<path d="M480 440 l0 -131 123 3 122 3 0 125 0 125 -122 3 -123 3 0 -131z
m220 -5 l0 -106 -97 3 -98 3 -3 103 -3 102 101 0 100 0 0 -105z"/>
<path d="M840 440 l0 -131 123 3 122 3 0 125 0 125 -122 3 -123 3 0 -131z
m220 -5 l0 -106 -97 3 -98 3 -3 103 -3 102 101 0 100 0 0 -105z"/>
<path d="M1200 440 l0 -131 123 3 122 3 0 125 0 125 -122 3 -123 3 0 -131z
m220 -5 l0 -106 -97 3 -98 3 -3 103 -3 102 101 0 100 0 0 -105z"/>
<path d="M1560 440 l0 -131 121 3 120 3 0 125 0 125 -120 3 -121 3 0 -131z
m220 -5 l0 -106 -97 3 -98 3 -3 103 -3 102 101 0 100 0 0 -105z"/>
<path d="M9510 1880 l0 -120 125 0 125 0 0 120 0 120 -125 0 -125 0 0 -120z
m220 0 l0 -100 -95 0 -95 0 0 100 0 100 95 0 95 0 0 -100z"/>
<path d="M11534 4259 c-123 -8 -189 -19 -314 -55 l-85 -24 -28 21 c-35 25 -46
17 -54 -37 -15 -116 137 -133 492 -54 205 45 283 53 444 47 115 -4 164 -11
231 -30 47 -14 86 -24 88 -23 5 6 -136 65 -218 90 -112 36 -198 53 -295 61
-44 3 -96 7 -115 9 -19 1 -85 -1 -146 -5z"/>
</g>
</svg>
